# xmcd CD database file
#
# Track frame offsets:
#	150
#	13868
#	31195
#	48855
#	73933
#	93098
#	108295
#	119678
#	132358
#	148695
#	162488
#	179300
#
# Disc length: 2752 seconds
#
# Revision: 0
# Processed by: cddbd v1.4PL0 Copyright (c) Steve Scherf et al.
# Submitted via: CDex 1.40Release
#
DISCID=a60abe0c
DTITLE=HiJinks - Slowpoke
DYEAR=1991
DGENRE=Country
TTITLE0=I want to be a Cowboy's Sweetheart
TTITLE1=Blues for Dixie
TTITLE2=I Hear Them Calling
TTITLE3=Man Walks Among Us
TTITLE4=Demon Alcohol
TTITLE5=Say Goodbye
TTITLE6=Ragged but Right
TTITLE7=The One and Only Lonely Abalone
TTITLE8=Slowpoke
TTITLE9=How High the Moon
TTITLE10=Walkin' after Midnight
TTITLE11=Blue Nagagi
EXTD=YEAR: 1991 ID3G: 2
EXTT0=
EXTT1=
EXTT2=
EXTT3=
EXTT4=
EXTT5=
EXTT6=
EXTT7=
EXTT8=
EXTT9=
EXTT10=
EXTT11=
PLAYORDER=
